<svg width="36" height="36" viewBox="0 0 36 36" fill="none" xmlns="http://www.w3.org/2000/svg">
<path d="M17.9859 2.68244C9.2918 2.67892 2.25 9.71719 2.25 18.4043C2.25 25.2738 6.65508 31.1132 12.7898 33.2578C13.616 33.4652 13.4895 32.8781 13.4895 32.4773V29.7527C8.71875 30.3117 8.52539 27.1547 8.20547 26.6273C7.55859 25.5234 6.0293 25.2422 6.48633 24.7148C7.57266 24.1558 8.68008 24.8554 9.96328 26.7504C10.8914 28.125 12.702 27.8929 13.6195 27.6644C13.8199 26.8383 14.2488 26.1 14.8395 25.5269C9.89648 24.641 7.83633 21.6246 7.83633 18.0387C7.83633 16.2984 8.40938 14.6988 9.53438 13.4086C8.81719 11.2816 9.60117 9.46055 9.70664 9.18985C11.7492 9.00703 13.8727 10.6523 14.0379 10.7824C15.198 10.4695 16.5234 10.3043 18.007 10.3043C19.4977 10.3043 20.8266 10.4766 21.9973 10.793C22.3945 10.4906 24.3633 9.07735 26.2617 9.24961C26.3637 9.52032 27.1301 11.2992 26.4551 13.398C27.5941 14.6918 28.1742 16.3055 28.1742 18.0492C28.1742 21.6422 26.1 24.6621 21.143 25.534C21.5676 25.9515 21.9047 26.4495 22.1347 26.9988C22.3646 27.5481 22.4829 28.1377 22.4824 28.7332V32.6882C22.5105 33.0047 22.4824 33.3175 23.0098 33.3175C29.2359 31.2187 33.7184 25.3371 33.7184 18.4078C33.7184 9.71719 26.673 2.68244 17.9859 2.68244Z" fill="#080F0F"/>
</svg>
