<svg width="36" height="36" viewBox="0 0 36 36" fill="none" xmlns="http://www.w3.org/2000/svg">
<path d="M18.0002 13.3137C15.4197 13.3137 13.3138 15.4195 13.3138 18C13.3138 20.5805 15.4197 22.6863 18.0002 22.6863C20.5807 22.6863 22.6865 20.5805 22.6865 18C22.6865 15.4195 20.5807 13.3137 18.0002 13.3137ZM32.0557 18C32.0557 16.0594 32.0732 14.1363 31.9643 12.1992C31.8553 9.94924 31.342 7.95236 29.6967 6.30705C28.0478 4.65822 26.0545 4.14846 23.8045 4.03947C21.8639 3.93049 19.9408 3.94807 18.0037 3.94807C16.0631 3.94807 14.14 3.93049 12.2029 4.03947C9.95291 4.14846 7.95603 4.66174 6.31072 6.30705C4.66189 7.95588 4.15212 9.94924 4.04314 12.1992C3.93415 14.1399 3.95173 16.0629 3.95173 18C3.95173 19.9371 3.93415 21.8637 4.04314 23.8008C4.15212 26.0508 4.6654 28.0477 6.31072 29.693C7.95955 31.3418 9.95291 31.8516 12.2029 31.9606C14.1435 32.0695 16.0666 32.052 18.0037 32.052C19.9443 32.052 21.8674 32.0695 23.8045 31.9606C26.0545 31.8516 28.0514 31.3383 29.6967 29.693C31.3455 28.0441 31.8553 26.0508 31.9643 23.8008C32.0768 21.8637 32.0557 19.9406 32.0557 18ZM18.0002 25.2106C14.0099 25.2106 10.7896 21.9902 10.7896 18C10.7896 14.0098 14.0099 10.7895 18.0002 10.7895C21.9904 10.7895 25.2107 14.0098 25.2107 18C25.2107 21.9902 21.9904 25.2106 18.0002 25.2106ZM25.5061 12.1781C24.5744 12.1781 23.8221 11.4258 23.8221 10.4942C23.8221 9.56252 24.5744 8.81017 25.5061 8.81017C26.4377 8.81017 27.19 9.56252 27.19 10.4942C27.1903 10.7154 27.1469 10.9345 27.0624 11.1389C26.9779 11.3434 26.8539 11.5291 26.6974 11.6855C26.541 11.842 26.3552 11.966 26.1508 12.0505C25.9464 12.1351 25.7273 12.1784 25.5061 12.1781Z" fill="#080F0F"/>
</svg>
