<svg width="36" height="36" viewBox="0 0 36 36" fill="none" xmlns="http://www.w3.org/2000/svg">
<path d="M30.9375 3.9375H5.0625C4.44023 3.9375 3.9375 4.44023 3.9375 5.0625V30.9375C3.9375 31.5598 4.44023 32.0625 5.0625 32.0625H30.9375C31.5598 32.0625 32.0625 31.5598 32.0625 30.9375V5.0625C32.0625 4.44023 31.5598 3.9375 30.9375 3.9375ZM27 11.1691L25.5656 12.5437C25.4391 12.6387 25.3793 12.7934 25.4039 12.9445V23.059C25.3793 23.2137 25.4391 23.3684 25.5656 23.4598L26.9719 24.8344V25.1402H19.9125V24.8484L21.3645 23.4387C21.5086 23.2945 21.5086 23.2523 21.5086 23.0379V14.8535L17.4656 25.1051H16.9207L12.2168 14.8535V21.7266C12.1746 22.0148 12.2766 22.3066 12.4805 22.5141L14.3719 24.8027V25.1086H9V24.8027L10.8914 22.5141C10.9911 22.4111 11.0652 22.2863 11.108 22.1495C11.1507 22.0128 11.1608 21.8679 11.1375 21.7266V13.7812C11.1621 13.5598 11.0777 13.3453 10.909 13.1941L9.22852 11.1691V10.8633H14.4492L18.4781 19.7051L22.0254 10.8703H27V11.1691Z" fill="#080F0F"/>
</svg>
